<svg width="1024" height="768" viewBox="0 0 144 180" fill="none" xmlns="http://www.w3.org/2000/svg">
<path d="M74.0974 99.2296C74.0271 99.0136 75.9367 93.6735 83.2548 78.8876C86.2686 71.4831 92.1381 61.63 98.547 57.1292C104.738 52.1008 110.21 50.5209 110.174 50.5378C110.186 50.5162 105.417 53.5897 100.676 59.4174C95.772 64.9267 92.6463 72.4153 89.3632 80.2824L88.7751 81.6895C81.4347 96.4667 74.8237 98.9556 74.1477 99.21L74.0974 99.2296Z" fill="white"/>
<path fill-rule="evenodd" clip-rule="evenodd" d="M72 144C111.764 144 144 111.765 144 72C144 32.2355 111.764 0 72 0C32.2359 0 0 32.2355 0 72C0 90.2709 6.80513 106.952 18.02 119.647C20.2508 122.229 21.6003 125.593 21.6003 129.273C21.6003 134.873 14.6186 139.743 10.2688 142.234C9.50337 142.672 9.82058 144 10.7027 144H72ZM54.6344 112.172C55.5205 113.462 57.4293 114.677 59.0417 114.534C59.3565 114.509 59.6769 114.423 59.9534 114.276C64.4973 111.946 68.9862 108.487 72.986 104.886C74.0135 105.188 75.4821 105.398 77.4924 105.225C80.6325 104.957 85.1029 103.772 91.3767 100.654C107.327 92.7144 109.154 80.9368 111.039 68.7796C112.437 59.7746 113.866 50.5613 121.091 42.5455C103.888 45.8597 71.5086 55.9288 67.7357 79.6961C65.6271 92.9344 68.0345 99.4193 69.6078 102.087C65.1541 106.005 60.6461 108.956 57.506 109.228C57.363 109.243 57.22 109.248 57.0818 109.249C56.8357 109.249 56.6088 109.263 56.4026 109.285C53.8825 109.496 53.7387 110.873 54.6344 112.172ZM71.7172 58.3853C65.9819 64.3241 62.4751 71.0836 61.2821 78.6178C60.0692 86.3031 60.1939 92.1971 60.9601 96.6808C44.5038 91.4823 40.8452 80.3241 37.0683 68.8093C34.2342 60.1671 31.3346 51.324 22.9091 44.6486C36.0663 44.8971 58.2867 47.4599 71.7172 58.3853Z" fill="white"/>
<path d="M13.0566 15.4844L15.2441 4.78125H17.6953L14.4141 19H12.0508L9.3457 8.61914L6.58203 19H4.20898L0.927734 4.78125H3.37891L5.58594 15.4648L8.30078 4.78125H10.3711L13.0566 15.4844ZM23.6133 19.1953C22.1094 19.1953 20.8887 18.7233 19.9512 17.7793C19.0202 16.8288 18.5547 15.5658 18.5547 13.9902V13.6973C18.5547 12.6426 18.7565 11.7018 19.1602 10.875C19.5703 10.0417 20.1432 9.39388 20.8789 8.93164C21.6146 8.4694 22.4349 8.23828 23.3398 8.23828C24.7786 8.23828 25.8887 8.69727 26.6699 9.61523C27.4577 10.5332 27.8516 11.832 27.8516 13.5117V14.4688H20.9473C21.0189 15.3411 21.3086 16.0312 21.8164 16.5391C22.3307 17.0469 22.9753 17.3008 23.75 17.3008C24.8372 17.3008 25.7227 16.8613 26.4062 15.9824L27.6855 17.2031C27.2624 17.8346 26.696 18.3262 25.9863 18.6777C25.2832 19.0228 24.4922 19.1953 23.6133 19.1953ZM23.3301 10.1426C22.679 10.1426 22.1517 10.3704 21.748 10.8262C21.3509 11.2819 21.097 11.9167 20.9863 12.7305H25.5078V12.5547C25.4557 11.7604 25.2441 11.1615 24.873 10.7578C24.502 10.3477 23.9876 10.1426 23.3301 10.1426ZM34.043 17.3008C34.6354 17.3008 35.127 17.1283 35.5176 16.7832C35.9082 16.4382 36.1165 16.0117 36.1426 15.5039H38.3789C38.3529 16.1615 38.1478 16.7767 37.7637 17.3496C37.3796 17.916 36.8587 18.3652 36.2012 18.6973C35.5436 19.0293 34.834 19.1953 34.0723 19.1953C32.5944 19.1953 31.4225 18.7168 30.5566 17.7598C29.6908 16.8027 29.2578 15.4811 29.2578 13.7949V13.5508C29.2578 11.9427 29.6875 10.6569 30.5469 9.69336C31.4062 8.72331 32.5781 8.23828 34.0625 8.23828C35.319 8.23828 36.3411 8.60612 37.1289 9.3418C37.9232 10.071 38.3398 11.0312 38.3789 12.2227H36.1426C36.1165 11.6172 35.9082 11.1191 35.5176 10.7285C35.1335 10.3379 34.6419 10.1426 34.043 10.1426C33.2747 10.1426 32.6823 10.4225 32.2656 10.9824C31.849 11.5358 31.6374 12.3789 31.6309 13.5117V13.8926C31.6309 15.0384 31.8359 15.8945 32.2461 16.4609C32.6628 17.0208 33.2617 17.3008 34.043 17.3008ZM39.7266 13.6191C39.7266 12.584 39.9316 11.653 40.3418 10.8262C40.752 9.99284 41.3281 9.35482 42.0703 8.91211C42.8125 8.46289 43.6654 8.23828 44.6289 8.23828C46.0547 8.23828 47.2103 8.69727 48.0957 9.61523C48.9876 10.5332 49.4694 11.7507 49.541 13.2676L49.5508 13.8242C49.5508 14.8659 49.349 15.7969 48.9453 16.6172C48.5482 17.4375 47.9753 18.0723 47.2266 18.5215C46.4844 18.9707 45.625 19.1953 44.6484 19.1953C43.1576 19.1953 41.9629 18.7005 41.0645 17.7109C40.1725 16.7148 39.7266 15.39 39.7266 13.7363V13.6191ZM42.0996 13.8242C42.0996 14.9115 42.3242 15.7643 42.7734 16.3828C43.2227 16.9948 43.8477 17.3008 44.6484 17.3008C45.4492 17.3008 46.071 16.9883 46.5137 16.3633C46.9629 15.7383 47.1875 14.8236 47.1875 13.6191C47.1875 12.5514 46.9564 11.7051 46.4941 11.0801C46.0384 10.4551 45.4167 10.1426 44.6289 10.1426C43.8542 10.1426 43.2389 10.4518 42.7832 11.0703C42.3275 11.6823 42.0996 12.6003 42.0996 13.8242ZM57.0898 10.6016C56.7773 10.5495 56.4551 10.5234 56.123 10.5234C55.0358 10.5234 54.3034 10.9401 53.9258 11.7734V19H51.5527V8.43359H53.8184L53.877 9.61523C54.4499 8.69727 55.2441 8.23828 56.2598 8.23828C56.5983 8.23828 56.8783 8.28385 57.0996 8.375L57.0898 10.6016ZM64.6094 19C64.5052 18.7982 64.4141 18.4694 64.3359 18.0137C63.5807 18.8014 62.6562 19.1953 61.5625 19.1953C60.5013 19.1953 59.6354 18.8926 58.9648 18.2871C58.2943 17.6816 57.959 16.9329 57.959 16.041C57.959 14.9147 58.3757 14.0521 59.209 13.4531C60.0488 12.8477 61.2467 12.5449 62.8027 12.5449H64.2578V11.8516C64.2578 11.3047 64.1048 10.8685 63.7988 10.543C63.4928 10.2109 63.0273 10.0449 62.4023 10.0449C61.862 10.0449 61.4193 10.1816 61.0742 10.4551C60.7292 10.722 60.5566 11.0638 60.5566 11.4805H58.1836C58.1836 10.901 58.3757 10.3607 58.7598 9.85938C59.1439 9.35156 59.6647 8.95443 60.3223 8.66797C60.9863 8.38151 61.7253 8.23828 62.5391 8.23828C63.776 8.23828 64.7624 8.55078 65.498 9.17578C66.2337 9.79427 66.6113 10.6667 66.6309 11.793V16.5586C66.6309 17.5091 66.7643 18.2676 67.0312 18.834V19H64.6094ZM62.002 17.291C62.4707 17.291 62.9102 17.1771 63.3203 16.9492C63.737 16.7214 64.0495 16.4154 64.2578 16.0312V14.0391H62.9785C62.0996 14.0391 61.4388 14.1921 60.9961 14.498C60.5534 14.804 60.332 15.237 60.332 15.7969C60.332 16.2526 60.4818 16.6172 60.7812 16.8906C61.0872 17.1576 61.4941 17.291 62.002 17.291ZM85.1758 14.3711C85.0326 15.888 84.4727 17.0729 83.4961 17.9258C82.5195 18.7721 81.2207 19.1953 79.5996 19.1953C78.4668 19.1953 77.4674 18.9284 76.6016 18.3945C75.7422 17.8542 75.0781 17.0892 74.6094 16.0996C74.1406 15.11 73.8965 13.9609 73.877 12.6523V11.3242C73.877 9.98307 74.1146 8.80143 74.5898 7.7793C75.0651 6.75716 75.7454 5.9694 76.6309 5.41602C77.5228 4.86263 78.5514 4.58594 79.7168 4.58594C81.2858 4.58594 82.5488 5.01237 83.5059 5.86523C84.4629 6.7181 85.0195 7.92253 85.1758 9.47852H82.7148C82.5977 8.45638 82.2982 7.7207 81.8164 7.27148C81.3411 6.81576 80.6413 6.58789 79.7168 6.58789C78.6426 6.58789 77.8158 6.98177 77.2363 7.76953C76.6634 8.55078 76.3704 9.69987 76.3574 11.2168V12.4766C76.3574 14.013 76.6309 15.1849 77.1777 15.9922C77.7311 16.7995 78.5384 17.2031 79.5996 17.2031C80.5697 17.2031 81.2988 16.985 81.7871 16.5488C82.2754 16.1126 82.5846 15.3867 82.7148 14.3711H85.1758ZM89.502 9.58594C90.2767 8.6875 91.2565 8.23828 92.4414 8.23828C94.694 8.23828 95.8366 9.52409 95.8691 12.0957V19H93.4961V12.1836C93.4961 11.4544 93.3366 10.9401 93.0176 10.6406C92.7051 10.3346 92.2428 10.1816 91.6309 10.1816C90.6803 10.1816 89.9707 10.6048 89.502 11.4512V19H87.1289V4H89.502V9.58594ZM104.59 19C104.486 18.7982 104.395 18.4694 104.316 18.0137C103.561 18.8014 102.637 19.1953 101.543 19.1953C100.482 19.1953 99.6159 18.8926 98.9453 18.2871C98.2747 17.6816 97.9395 16.9329 97.9395 16.041C97.9395 14.9147 98.3561 14.0521 99.1895 13.4531C100.029 12.8477 101.227 12.5449 102.783 12.5449H104.238V11.8516C104.238 11.3047 104.085 10.8685 103.779 10.543C103.473 10.2109 103.008 10.0449 102.383 10.0449C101.842 10.0449 101.4 10.1816 101.055 10.4551C100.71 10.722 100.537 11.0638 100.537 11.4805H98.1641C98.1641 10.901 98.3561 10.3607 98.7402 9.85938C99.1243 9.35156 99.6452 8.95443 100.303 8.66797C100.967 8.38151 101.706 8.23828 102.52 8.23828C103.757 8.23828 104.743 8.55078 105.479 9.17578C106.214 9.79427 106.592 10.6667 106.611 11.793V16.5586C106.611 17.5091 106.745 18.2676 107.012 18.834V19H104.59ZM101.982 17.291C102.451 17.291 102.891 17.1771 103.301 16.9492C103.717 16.7214 104.03 16.4154 104.238 16.0312V14.0391H102.959C102.08 14.0391 101.419 14.1921 100.977 14.498C100.534 14.804 100.312 15.237 100.312 15.7969C100.312 16.2526 100.462 16.6172 100.762 16.8906C101.068 17.1576 101.475 17.291 101.982 17.291ZM112.07 5.86523V8.43359H113.936V10.1914H112.07V16.0898C112.07 16.4935 112.148 16.7865 112.305 16.9688C112.467 17.1445 112.754 17.2324 113.164 17.2324C113.438 17.2324 113.714 17.1999 113.994 17.1348V18.9707C113.454 19.1204 112.933 19.1953 112.432 19.1953C110.609 19.1953 109.697 18.1895 109.697 16.1777V10.1914H107.959V8.43359H109.697V5.86523H112.07Z" transform="translate(13 160)" fill="white"/>
</svg>
