<svg width="192" height="192" viewBox="0 0 120 120" fill="none" xmlns="http://www.w3.org/2000/svg">
<path fill-rule="evenodd" clip-rule="evenodd" d="M120 37.538C120 36.104 120 34.672 119.992 33.238C119.984 32.032 119.97 30.824 119.938 29.618C119.868 26.988 119.712 24.336 119.246 21.736C118.772 19.096 117.998 16.64 116.776 14.242C115.576 11.884 114.01 9.73 112.14 7.86C110.27 5.992 108.116 4.424 105.758 3.224C103.362 2.004 100.906 1.23 98.268 0.756C95.666 0.288 93.014 0.134 90.384 0.062C89.176 0.03 87.97 0.016 86.762 0.008C85.33 0 83.896 0 82.462 0H37.538C36.106 0 34.672 0 33.24 0.008C32.032 0.016 30.824 0.03 29.618 0.062C26.988 0.134 24.334 0.288 21.734 0.756C19.096 1.23 16.64 2.004 14.244 3.224C11.886 4.424 9.73 5.992 7.862 7.86C5.992 9.73 4.426 11.884 3.226 14.242C2.004 16.64 1.23 19.096 0.756 21.736C0.29 24.336 0.134 26.988 0.064 29.618C0.032 30.824 0.016 32.032 0.01 33.238C0 34.672 0 36.104 0 37.538V82.462C0 83.896 0 85.328 0.01 86.762C0.016 87.968 0.032 89.176 0.064 90.382C0.134 93.012 0.29 95.664 0.756 98.264C1.23 100.904 2.004 103.362 3.226 105.76C4.426 108.116 5.992 110.27 7.862 112.138C9.73 114.01 11.886 115.576 14.244 116.776C16.64 117.996 19.096 118.77 21.734 119.244C24.334 119.71 26.988 119.868 29.618 119.938C30.824 119.97 32.032 119.984 33.24 119.992C34.672 120 36.106 120 37.538 120H82.462C83.896 120 85.33 120 86.762 119.992C87.97 119.984 89.176 119.97 90.384 119.938C93.014 119.868 95.666 119.71 98.268 119.244C100.906 118.77 103.362 117.996 105.758 116.776C108.116 115.576 110.27 114.01 112.14 112.138C114.01 110.27 115.576 108.116 116.776 105.76C117.998 103.362 118.772 100.904 119.246 98.264C119.712 95.664 119.868 93.012 119.938 90.382C119.97 89.176 119.984 87.968 119.992 86.762C120 85.328 120 83.896 120 82.462V37.538Z" fill="#E55A4F"/>
<path fill-rule="evenodd" clip-rule="evenodd" d="M44 88C68.3005 88 88 68.3005 88 44C88 19.6995 68.3005 0 44 0C19.6995 0 0 19.6995 0 44C0 55.1655 4.15894 65.3597 11.0122 73.1179C12.3755 74.6953 13.2002 76.7514 13.2002 79C13.2002 82.4224 8.93335 85.3987 6.27563 86.9207C5.80762 87.1886 6.00122 88 6.54053 88H44ZM33.3875 68.5494C33.9292 69.3376 35.0955 70.0806 36.0808 69.993C36.2737 69.9779 36.4692 69.925 36.6382 69.8355C39.415 68.4117 42.158 66.2977 44.6025 64.097C45.2305 64.2818 46.1277 64.41 47.3564 64.3044C49.2756 64.1404 52.0073 63.4162 55.8411 61.5106C65.5889 56.6588 66.7053 49.4614 67.8577 42.032C68.7112 36.5289 69.5845 30.8986 74 26C63.4868 28.0254 43.6997 34.1787 41.394 48.7032C40.1057 56.7933 41.5767 60.7563 42.5381 62.3866C39.8164 64.7806 37.0615 66.5844 35.1423 66.7503C35.0552 66.7597 34.9678 66.7626 34.8833 66.7635C34.7329 66.7635 34.5942 66.772 34.4683 66.7852C32.9285 66.9144 32.8403 67.7554 33.3875 68.5494ZM45.282 60.6403C45.2388 60.5083 46.406 57.2449 50.8779 48.2091C52.72 43.6841 56.3066 37.6628 60.2231 34.9123C64.0063 31.8394 67.3508 30.8738 67.3289 30.8842C67.3362 30.871 64.4214 32.7493 61.5244 36.3106C58.5271 39.6774 56.6172 44.2538 54.6108 49.0614L54.2517 49.9214C49.7659 58.9519 45.7256 60.4729 45.3127 60.6283L45.282 60.6403ZM43.8274 35.6799C40.3223 39.3091 38.179 43.44 37.45 48.0442C36.709 52.7408 36.7852 56.3427 37.2534 59.0827C27.1968 55.9058 24.9607 49.087 22.6531 42.0501C20.9211 36.7688 19.1489 31.3647 14 27.2853C22.0405 27.4371 35.6199 29.0032 43.8274 35.6799Z" transform="translate(16 16)" fill="white"/>
</svg>